/* XPM */
static char *_054b1c10d0b4989a8e70730e1386a08qrABXpNTN9o6j4sX[] = {
/* columns rows colors chars-per-pixel */
"32 32 178 2 ",
"   c None",
".  c black",
"X  c #146B3E",
"o  c #146B3F",
"O  c #156B3F",
"+  c #136C3F",
"@  c #146C3F",
"#  c #156C3F",
"$  c #146D3F",
"%  c #156D3F",
"&  c #166C3F",
"*  c #146B40",
"=  c #146B41",
"-  c #146C40",
";  c #156C40",
":  c #146D40",
">  c #156D40",
",  c #146C41",
"<  c #156C41",
"1  c #146D41",
"2  c #156D41",
"3  c #166C40",
"4  c #166D40",
"5  c #166C41",
"6  c #176C41",
"7  c #166D41",
"8  c #3D5978",
"9  c #3F627F",
"0  c #436585",
"q  c #456485",
"w  c #4D698B",
"e  c #516880",
"r  c #497193",
"t  c #4D7596",
"y  c #557497",
"u  c #5A7EA5",
"i  c #5281A5",
"p  c #5B81A0",
"a  c #5C84A2",
"s  c #5887AF",
"d  c #5D86AF",
"f  c #5E8EAB",
"g  c #578CB2",
"h  c #588EB1",
"j  c #5E8EB1",
"k  c #5A92B7",
"l  c #678DA5",
"z  c #6189AA",
"x  c #658AAF",
"c  c #659DAD",
"v  c #678FB7",
"b  c #6696B7",
"n  c #6890B2",
"m  c #6C91B4",
"M  c #629FB3",
"N  c #609BBD",
"B  c #659BBC",
"V  c #649EBE",
"C  c #6A9ABB",
"Z  c #6DA8BE",
"A  c #7BA0B8",
"S  c #639FC2",
"D  c #699FC3",
"F  c #63A5C7",
"G  c #68A0C2",
"H  c #69A3C5",
"J  c #63AAC1",
"K  c #65ABC4",
"L  c #65ADC7",
"P  c #63A5C9",
"I  c #64A6C9",
"U  c #6DA7CC",
"Y  c #66ACCA",
"T  c #64A9CC",
"R  c #65ABCC",
"E  c #65A8CE",
"W  c #6AABCC",
"Q  c #6DADCE",
"!  c #6CAFCE",
"~  c #71A4C0",
"^  c #76A6C0",
"/  c #76A6C7",
"(  c #75A9C6",
")  c #7AABC4",
"_  c #75ABCC",
"`  c #75AACE",
"'  c #71B2CB",
"]  c #77B0C9",
"[  c #77B2CF",
"{  c #78B1CF",
"}  c #7AB9CE",
"|  c #67AAD0",
" . c #67ADD3",
".. c #67AAD4",
"X. c #69ADD3",
"o. c #73AED3",
"O. c #69B6D3",
"+. c #6AB7D2",
"@. c #6AB7D4",
"#. c #6EB8D3",
"$. c #6AB9D7",
"%. c #6BB9D7",
"&. c #6BBAD7",
"*. c #6AB3DA",
"=. c #6DB6DE",
"-. c #6DB8DB",
";. c #6CB9DC",
":. c #6CBDDC",
">. c #75B4D0",
",. c #76B5D3",
"<. c #71B5D6",
"1. c #74B5D5",
"2. c #75B5D5",
"3. c #7EB3D1",
"4. c #75B9D7",
"5. c #73B7D8",
"6. c #74BDDA",
"7. c #72BBDD",
"8. c #77BBDE",
"9. c #6FBEE1",
"0. c #74BFE3",
"q. c #70BEE6",
"w. c #7FC2DF",
"e. c #6FC1E4",
"r. c #70C3E3",
"t. c #76C3E3",
"y. c #78C1E1",
"u. c #78C2E0",
"i. c #78C4E0",
"p. c #79C7E4",
"a. c #78C5E6",
"s. c #71C1E8",
"d. c #71C4E8",
"f. c #72C6EA",
"g. c #73C7EB",
"h. c #73C6ED",
"j. c #73C8EA",
"k. c #77C9EE",
"l. c #7ACBEF",
"z. c #7DCDEC",
"x. c #7ECDEF",
"c. c #7CCEEE",
"v. c #77CEF6",
"b. c #7BCFF0",
"n. c #7ACFF2",
"m. c #78CFF7",
"M. c #7DD2F5",
"N. c #79D1F9",
"B. c #79D3F9",
"V. c #7AD4FB",
"C. c #7DD5FA",
"Z. c #7AD4FC",
"A. c #7AD5FC",
"S. c #7BD6FD",
"D. c #7BD7FF",
"F. c #7CD7FF",
"G. c #8BBCCD",
"H. c #82B8D7",
"J. c #85B8D4",
"K. c #81B8D9",
"L. c #82BCDA",
"P. c #80BBDD",
"I. c #81C6E4",
"U. c #83CAE4",
"Y. c #8FCCE7",
"T. c #82CBE9",
"R. c #81CBEA",
"E. c #83CFEE",
"W. c #90C7E4",
"Q. c #87D0ED",
"!. c #87D6F6",
"~. c #8CD3F2",
"^. c #81D9FE",
"/. c #84DAFE",
"(. c #8ADAFB",
"). c #8FDEFE",
"_. c #C3E0ED",
"`. c #D4EAF3",
/* pixels */
"                                                                ",
"              -                                 o               ",
"        *   -                                     -   *         ",
"        -                                             -         ",
"      -                                                 6       ",
"    - - -             .     .     .   .               - - -     ",
"                            .     .   .                         ",
"  6                   . . . . . .     .                     6   ",
"  - 6 %                   . .     .   .                 - 6 -   ",
"6                     . .   .     .   . .                     6 ",
"- -   -           +.r.:.L &.#.y.6.@.+.K e.&.J           -   - - ",
"6 -           Z p.N.5.H R P k.S.S.7.;.R D 8.m.&.c           % 6 ",
"%     -   Z p.=.<.Q h.9.S.v.B L.( R F.f.N.X.C y.N.}     -     - ",
"- % - -   a j m D U o.3.J.8.W.`._.J.s v L.` v / d u A   - % - - ",
"  -         i x.^ M.S.f.Y.F.F.G.).^.!.k S...' M.m w         -   ",
"%       -     r I._ b.D.R F.F.) T.F.E.d.q.>.t.~ e     -       6 ",
"7 -   7 -       9 N 4.x.j.*./.U.1.S.y.s.[ ! f         - 7   - - ",
"  - - 7             t T.z. .l.Q.W C.-.{ I 0             7 : -   ",
"    -     - -         a !.>.h ).P S 1.t.8         - 7     7     ",
"  - -     - 7           l ~.V ).R ( `             7 -     7 -   ",
"    7 7 - 7     -           b w.g y           -     7 - 7 7     ",
"      - 7 -     -             a q             7     % 7 -       ",
"        6       7 7   - 7             - -   - 6       -         ",
"        - 7 - - -     - -             - -     - - - - %         ",
"          % - 7 -       - 7         - -       - - - 7           ",
"              : -     -               - -     - -               ",
"                7 7 - 6 7 7         - 7 7 7 7 7                 ",
"                    7 - -     - %     - 7 7                     ",
"                          - -     % -                           ",
"                      - -             - -                       ",
"                    - %                   -                     ",
"                                                                "
};
