/* XPM */
static char *e07c322040da4bc4d8468ef540b467dc6yz4qJYoL2mRcvz2[] = {
/* columns rows colors chars-per-pixel */
"64 64 190 2 ",
"   c None",
".  c black",
"X  c #146B3F",
"o  c #2D3D53",
"O  c #30445D",
"+  c #156D41",
"@  c #196F43",
"#  c #364E68",
"$  c #374C69",
"%  c #3D5167",
"&  c #3B516D",
"*  c #355664",
"=  c #395373",
"-  c #3F5C7D",
";  c #455E7A",
":  c #40627E",
">  c #546776",
",  c #405F83",
"<  c #4F6B85",
"1  c #45658C",
"2  c #496688",
"3  c #46698E",
"4  c #446181",
"5  c #546D8A",
"6  c #467582",
"7  c #48718F",
"8  c #507F88",
"9  c #50738C",
"0  c #476A91",
"q  c #4A6D92",
"w  c #4B6E99",
"e  c #4E7496",
"r  c #4D739B",
"t  c #4D7A9C",
"y  c #4D7A96",
"u  c #547492",
"i  c #5D7A96",
"p  c #55759A",
"a  c #54799D",
"s  c #547A96",
"d  c #637A8B",
"f  c #5076A5",
"g  c #517DA4",
"h  c #5C7DA1",
"j  c #537DAB",
"k  c #51819F",
"l  c #5C8296",
"z  c #61849E",
"x  c #6B9098",
"c  c #5483A5",
"v  c #5D86A2",
"b  c #5582AC",
"n  c #5A87A8",
"m  c #558AAC",
"M  c #5B8AAC",
"N  c #5889A4",
"B  c #5692A4",
"V  c #5794A8",
"C  c #5994AC",
"Z  c #5B99A8",
"A  c #5B8BB3",
"S  c #5994B3",
"D  c #5C9BB5",
"F  c #5C93BA",
"G  c #5D9CBC",
"H  c #6384A6",
"J  c #6889A6",
"K  c #638FAD",
"L  c #6083A9",
"P  c #6091AF",
"I  c #649AAA",
"U  c #6891AC",
"Y  c #7393AD",
"T  c #658BB0",
"R  c #6D8FB0",
"E  c #6C92B4",
"W  c #639AB7",
"Q  c #649BB9",
"!  c #6A97B6",
"~  c #749CB2",
"^  c #759ABD",
"/  c #7599BA",
"(  c #5FA0BC",
")  c #62A4BE",
"_  c #64AABE",
"`  c #6CA4BA",
"'  c #7AA2BB",
"]  c #74ACBD",
"[  c #75A2B7",
"{  c #5F9AC2",
"}  c #619DC6",
"|  c #699DC4",
" . c #61A5C3",
".. c #64ACC3",
"X. c #6AABC3",
"o. c #63A3CD",
"O. c #65AECC",
"+. c #6AAECF",
"@. c #6BA3CB",
"#. c #7CADC5",
"$. c #74ABC9",
"%. c #7CA1C1",
"&. c #67B1CD",
"*. c #6AB3CE",
"=. c #7EB2C2",
"-. c #75B4CB",
";. c #7CB4CB",
":. c #75B9CE",
">. c #78B4C8",
",. c #67ACD4",
"<. c #68AED6",
"1. c #69AFD8",
"2. c #73AED3",
"3. c #69B4D3",
"4. c #6DB9D5",
"5. c #6BB4DA",
"6. c #6DBDDA",
"7. c #74B2D2",
"8. c #7CB6D4",
"9. c #7BBEDB",
"0. c #75BCD4",
"q. c #6EB9E2",
"w. c #71BFE6",
"e. c #7AC0D9",
"r. c #6FC1E1",
"t. c #73C4E3",
"y. c #7EC6E4",
"u. c #78C8E6",
"i. c #72C3EB",
"p. c #78C7EC",
"a. c #75CAED",
"s. c #7BCDED",
"d. c #76CCF2",
"f. c #79CBF1",
"g. c #77D0F4",
"h. c #79D1F6",
"j. c #7BD7FE",
"k. c #7CD8FE",
"l. c #829BA2",
"z. c #83ABC3",
"x. c #81ABCA",
"c. c #84B5CB",
"v. c #89B0C9",
"b. c #84BBCF",
"n. c #82B0C4",
"m. c #96B1C7",
"M. c #92B4CD",
"N. c #9DB9CF",
"B. c #89B4D2",
"V. c #84BCD6",
"C. c #89B9D2",
"Z. c #97B8D1",
"A. c #88C3D6",
"S. c #87C4D9",
"D. c #93C1DB",
"F. c #9AC5DA",
"G. c #93C2D0",
"H. c #A0C7DC",
"J. c #A8C7D7",
"K. c #B9CEDE",
"L. c #B3C9DC",
"P. c #8BCBE3",
"I. c #84CCE8",
"U. c #93CAE4",
"Y. c #8FD0EB",
"T. c #94D4ED",
"R. c #97D3EA",
"E. c #83D3F3",
"W. c #8AD1F0",
"Q. c #83D9FD",
"!. c #8DDDFD",
"~. c #82D6F8",
"^. c #93D7F3",
"/. c #9BDBF4",
"(. c #93DEFC",
"). c #92D8F3",
"_. c #A8CBE0",
"`. c #A5D4E9",
"'. c #B9D3E3",
"]. c #A1DBF2",
"[. c #ACDFF3",
"{. c #97E0FD",
"}. c #9DE2FD",
"|. c #A2E4FD",
" X c #ACE7FC",
".X c #BDE8F7",
"XX c #C1D7E4",
"oX c #D4F3FC",
"OX c #E5F6FB",
"+X c #F9FDFD",
/* pixels */
"                                                                                                                                ",
"                                X                                                             X                                 ",
"                            + +                                                                 + +                             ",
"                        X X + X                                                                 X + + X                         ",
"                  +   + + + +                                                                     + + + +   +                   ",
"                X +   X + X                                                                         X + X   + X                 ",
"                + X                                                                                         X +                 ",
"            X   + + X X X                                                                             + X X + + + X             ",
"            +   X   X +                                                                                 + X   X   +             ",
"          X +                                                                                                     + +           ",
"          + +                                 . . . .   . .         . .   . . . . .                               + +           ",
"          + +   + + X                       . .         . .         . .       .                           X + +   + +           ",
"      X   X   X +                         . .           . .         .         .                               + +   X   X       ",
"      + +                                 . .           . .       . .         .                                       X +       ",
"      + +                                   . . . . .   . . . . .             .                                       + +       ",
"    @ + +   X X +                                   . . . . . . . .           .                               + X X   + + @     ",
"      + X   + +                                     . . . .       . .         .                                 + +   + +       ",
"  +   + + + X                                       . . . .         . .       .                                   X + + +   +   ",
"  + +                                             . .   . .         . .     . .                                           + +   ",
"  + +         X                           . . . .         .         . . . . . . . . .                           X         + +   ",
"  + + +     + +                     Z ..) 3.3.V  .&.&...V I [ :.] I V  .&.&. .B 3...D ( (                       + +     + + +   ",
"  + + X   + + X                   ] 4.h.j.j.j.h...O.t.a.Q.j.k.j.k.k.j.a.t.*._ a.j.j.j.h.6...6                   X + +   + + +   ",
"  + + + + + X                 l :.Q.j.j.j.p.9.P y 5.D p.j.j.j.j.j.j.j.a.( 5.C W $.2.r.j.j.j.e.B                   X + + + + +   ",
"+   + +                   l A.f.+.k.j.t.$.U F ,. .j.5.k 7.i.j.j.j.d.y.N 5.j.4.d.F S >.$.q.j.6.k.u.x                     X +   + ",
"+ +           X       6 ` I.j. .i.w.` K } f.j.G j.j.j.5.y c.,.i.w.C.e 5.j.j.j.3.k.d.A M #.8.5.q.j.a.=.l.        X           X + ",
"+ + X       + +     W 0.h.j.j.A 8.W ,.j.k.k.j.*.j.j.j.j.i.f c.J.b.u ,.j.j.j.j.6.j.Q.j.i.j n V.E.j.j.g.7.G.      + X       X + + ",
"+ + +     X + X   Q n./ q 0 L m.H h H H R E M.Z.^ %.z.M.J.L.K.OXXXK.F.u a 3 K Z.U.B.B.B.x.^ ^ N.K L T %.' F.    + + +     + + + ",
"+ + + +   + + X   # r 3 7.2.! f <.f.f.f.d.d.a.G W.W.d.d.d.a..X+XOX X].Y.q.b f r @.i.i.j f j Q 5.F f r 2 E d     X + +   + + + + ",
"  + + +   + X         1 t t.k.R.J -.k.k.j.j.j.D ^.oXj.j.j.j. XJ.|.Q.j.(.(.g.f m j.j.w.j 1.:.9.k.U.w 1 p           X +   + + +   ",
"  X + +                 = r 3.j.].z >.k.j.j.j.g.M j.j.j.j.j.|.* }.j.j.j.|.k.t d.j.d.{ h.-.] j.Q./ q 5                   + + +   ",
"X     X         + X       O 3  .k.`.! :.j.j.j.j.S i.j.j.j.j.T.< U.k.k.k.{.j.S k.j.,.h.` X.h.Q.z.p >         X +         X     + ",
"+ +             + +           , C Q.v.0.;.j.j.j.h.t j.j.j.k.;.V.=.j.k.k.(. .d.j.5.p.~ e.3.Q.~ u             + +             X + ",
"  + +         X + +             = k I.c s.;.h.j.j.D ,.k.j.!.*./.! Q.j.j.(...j.i.3.~ E.F ~.v 2               + + +         + +   ",
"  + + + +     @ + +               O 7 ,.N Q.A.g.k.j.e j.j.!.*.|.N !.j.j.:.h.d.G ' Q.m y.s &                 X + +     X + + +   ",
"  X + + + +   + X                     : m C Q.D.p.j. .o.j.Q.O.|.c Q.k.Q.*.j.A z.k.Q m 4                       + +   + + + + X   ",
"    + + + +   +       +                 $ 3 ;.k.P.u.k.F g.*.a.|.{ 4.j.s.d.M c.k.5.0 =                   X       +   + + + +     ",
"      + + +           + +                 o q P.j.P.9.3.o.D j.|.,.G h.F c V.k.a.r $                   + +           + + +       ",
"        X + X         + +                     u /.j.Y.E q A j.|.i.M ) u 9.k.Q.v                       + +         + + +         ",
"      +             + + +                       < T.j.).i O.k.|.h.b 9 w.Q.^.i                         + + +             +       ",
"      X @ + X       + + +                         % D.!.u.S k.|.j.e 8.D.^ =                           + + +       X + + X       ",
"        + + + + X   + + +       @                     Y /.c i.|.i.3 f a o                     +       + + +   + + + + +         ",
"        X + + + + +   + X       + +                     - | c ^.m f u                       + +       X +   X + + + + X         ",
"          X @ + + + +           + @ +                     & a X.p :                       + + +           + + + + + +           ",
"            + + + + +           + + +     X +                 i $                 X +     + + +           + + + + +             ",
"                + + +           + + +       + + X                             + + +       + + +           + + +                 ",
"              X +               + + +       + + + X                         + + + +       + + +               + X               ",
"                + + + + + + +     + +         + + + X                     X + + +         + +     + + + X + + +                 ",
"                  + + + + + + + X   X         + + + +                     + + + +         +   X + + + + + + +                   ",
"                    X + + + + + + +           X + + +                     + @ + X           + + + + + + + X                     ",
"                      + + + + + + + +           + + +                     + + X           X + + + + + + +                       ",
"                          + + + + +                 +                     +                 + + + + +                           ",
"                                    + + + + + + X +                         X + + + + + + +                                     ",
"                              + + + + @ + + + + + + + X                 X + + + + + + + + + + + +                               ",
"                                  + + + + + + + + + + + X             + + + + + + + @ + + + +                                   ",
"                                      + + + + + @ + +         X           + @ + + + + + +                                       ",
"                                            + + +           X X X +           + + +                                             ",
"                                                        + + X       + +                                                         ",
"                                                    + + X             + + +                                                     ",
"                                              + + + X                     X + + +                                               ",
"                                        + X + + + X                           + + + + +                                         ",
"                                        + + + +                                 + + + +                                         ",
"                                        + +                                         + +                                         ",
"                                        +                                             X                                         ",
"                                                                                                                                "
};
