/* XPM */
static char *_c5b23e04edb482e962300c9ec243b965bucyMncrBT2CUST[] = {
/* columns rows colors chars-per-pixel */
"16 16 54 1 ",
"  c None",
". c black",
"X c #156B3F",
"o c #156C3F",
"O c #156D3F",
"+ c #156B40",
"@ c #146C40",
"# c #156C40",
"$ c #146D40",
"% c #156D40",
"& c #156C41",
"* c #156D41",
"= c #166D40",
"- c #51799C",
"; c #597899",
": c #57879E",
"> c #5D94B4",
", c #649DBE",
"< c #699BBA",
"1 c #6AA2C5",
"2 c #68A5C8",
"3 c #6CA7CA",
"4 c #66ADCC",
"5 c #6DAACD",
"6 c #70A4C6",
"7 c #71AECE",
"8 c #68B1CF",
"9 c #6BACD2",
"0 c #6EB5D6",
"q c #6EB5D7",
"w c #6BB9D8",
"e c #70B2D1",
"r c #75BBD9",
"t c #77BADB",
"y c #73BBDD",
"u c #75B9DC",
"i c #76B9DD",
"p c #72BEDD",
"a c #7ABBD8",
"s c #71BCE1",
"d c #70BDE1",
"f c #7DC0DD",
"g c #72C1E2",
"h c #76C0E2",
"j c #75C3E7",
"k c #7FC5E4",
"l c #76C6E8",
"z c #7DC6EA",
"x c #7AC9EC",
"c c #79D1F6",
"v c #89BBD6",
"b c #93C2DB",
"n c #82D0F0",
"m c #83D6F9",
/* pixels */
"                ",
"  o          o  ",
" *            o ",
"       .        ",
"         .      ",
"*   p04lg00w   *",
"X*:35uzbv9u61 *o",
"X  >acxkmhdr;  o",
"o*   ednjy,   *o",
"      ft27      ",
" *o *  <-  o O* ",
"  * * +  + * *  ",
"   ** *  o +*   ",
"    +*o  ***    ",
"                ",
"                "
};
